<svg xmlns="http://www.w3.org/2000/svg" xmlns:xlink="http://www.w3.org/1999/xlink" preserveAspectRatio="none" x="0px" y="0px" width="500px" height="340px" viewBox="0 0 500 340"><defs><g id="Symbol_2_copy_0_Layer0_0_FILL"><path fill="#FFFFFF" stroke="none" d="M -20 -62.35Q -20 -70.95 -25.85 -76.6 -31.75 -82.25 -40.65 -82.25 -49.65 -82.25 -55.55 -76.6 -61.45 -70.9 -61.45 -62.35 -61.45 -53.75 -55.55 -48.1 -49.65 -42.4 -40.65 -42.4 -31.75 -42.4 -25.85 -48.05 -20 -53.75 -20 -62.35M -29.85 -73.05Q -25.55 -68.8 -25.55 -62.35 -25.55 -55.85 -29.85 -51.6 -34.15 -47.35 -40.65 -47.35 -47.2 -47.35 -51.55 -51.6 -55.85 -55.85 -55.85 -62.35 -55.85 -68.8 -51.55 -73.05 -47.2 -77.3 -40.65 -77.3 -34.15 -77.3 -29.85 -73.05M 15.7 -78.2Q 11.35 -81.85 3.75 -81.85L -11.45 -81.85 -11.45 -42.85 -5.9 -42.85 -5.9 -54.7 6.2 -54.8 14.6 -42.85 20.7 -42.85 11.45 -55.95Q 20 -59 20 -68.25 20 -74.6 15.7 -78.2M 14.45 -68.25Q 14.45 -64.05 11.7 -61.75 8.9 -59.45 3.6 -59.45L -5.9 -59.45 -5.9 -76.95 3.6 -76.95Q 14.45 -76.95 14.45 -68.25M 34.55 -81.85L 29 -81.85 29 -42.85 55.65 -42.85 55.65 -47.7 34.55 -47.7 34.55 -81.85M 79.3 -81.85L 73.8 -81.85 56.15 -42.85 61.9 -42.85 66.2 -52.6 86.85 -52.6 91.15 -42.85 97 -42.85 79.3 -81.85M 68.1 -57.05L 76.55 -76.15 84.95 -57.05 68.1 -57.05 Z"></path><path fill="#B10000" stroke="none" d="M -150.85 15.3Q -150.85 15.4 -150.75 15.45 -150.7 15.45 -150.7 15.15L -150.85 15.3M -71.25 17.5L -71.5 17.65Q -71.5 18.15 -71.25 17.5M -115.85 -84.2L -118.5 -78.8 -121.9 -68.85 -120.8 -68.55 -122.15 -67.8 -122 -66.15 -123.1 -60.3 -124.35 -59.35Q -124.3 -58.75 -124.15 -58.3L -124 -56.65Q -124.05 -55.65 -124.8 -55.65 -124.95 -55.7 -125 -55.8 -125.1 -55.9 -125.25 -55.9L -129.85 -36.65 -130.25 -35.7 -129.75 -35.3 -129.95 -32.65 -130.95 -32.35 -130 -31.7Q -130.25 -30.8 -130.45 -29.65L -131.15 -26.7Q -131.65 -25.3 -132.15 -26L -134.4 -14.3 -135.25 -13.45 -135.6 -11.35Q -135.6 -10.7 -135.35 -10.05 -136.25 -9.55 -136.8 -7.25L -138.6 0.95 -136.8 1.35 -138 3.85 -139.8 6Q -138.55 6.55 -138.6 7.35 -138.6 8 -140 8.35L -140.1 11.9Q -141.05 11.9 -141 11L -140.65 1.65 -141.3 1.25Q -141.15 1.15 -140.9 1.25 -140.5 1.4 -140.65 1.25 -140.8 0.75 -140.75 0.35 -140.75 -0.05 -140.6 -0.05L -141.2 -3.1 -140.55 -3.1 -140.5 -4.75 -141.5 -5.1 -140.5 -10.45 -141.35 -10.5Q -141.65 -10.5 -142 -10.85L -141.45 -12.9Q -140.15 -12.6 -140.7 -14.15L -141.2 -16.9 -140.2 -16.85Q -139.95 -17 -140.3 -17 -140.8 -17 -140.85 -17.15 -140.95 -17.65 -140.7 -18 -140.45 -18.3 -140.2 -18.15L -140.4 -20.45 -140.9 -22.5 -140.75 -23.2 -141.05 -23.6 -140.05 -23.55 -140.1 -26.8 -140.6 -29.85 -139.1 -30.4 -138.85 -34.4 -139.95 -36.4Q -137.55 -37.55 -137.35 -40.35L -137 -45.55Q -137.7 -45.4 -137.5 -46.25 -137.35 -47.05 -136.7 -46.55L -137.45 -49.1 -136.95 -48.6 -135.5 -55.6 -134.4 -56.1 -133.7 -58.45 -134.35 -59.1 -133.05 -61.2 -132.6 -63.7 -128.15 -70.95Q -128.7 -74.35 -131.4 -75.8 -134.1 -77.2 -137 -77.25L -139.05 -74.9 -139.55 -74.9Q -139.9 -74.65 -139.9 -73.95 -139.95 -73 -140.75 -73L -140.9 -73 -144.1 -65.35 -144.1 -64.95 -144.25 -65.35Q -146.05 -64.65 -146.8 -62.75L -148.1 -58.75Q -148.65 -56.7 -150.05 -55.95L -150.05 -54.4 -147.35 -54.9 -146.35 -58.35Q -145.15 -58.85 -143.95 -57.75L -144.5 -54.25 -143.35 -54.25 -145.05 -53.8 -145.15 -47.55 -146.25 -45.75 -145.2 -45.75 -146.3 -44.8 -147.95 -29.05 -147.95 -28.75 -148.65 -29.05Q -148.55 -28.8 -148.3 -28.65 -147.95 -28.3 -147.95 -28.1L -148.7 -27.75 -148.05 -24.7 -149.05 -24.4 -149.15 -20.4 -148.15 -20.4Q -148 -19.75 -148.4 -19.25 -148.9 -18.75 -149.35 -18.65L -149.95 -17.1 -149 -13.7 -150.05 -13.1 -149.35 -11 -150.15 -9.65 -150.35 -8 -150.15 -6.1 -149.65 -4.25 -150.3 -2.3 -150.65 0.15Q -150.7 2.4 -149.7 3.1L -150.75 3.7 -150.5 6.45 -149.8 9.15 -150.9 9.6 -151 14.55Q -150.55 14.15 -149.95 14.7 -149.65 15.1 -149.45 15.7L -150 16.15Q -150.937890625 16.1052734375 -150.9 15.45L -151.25 17.6 -150.75 21.1 -149.85 24.35 -150.6 26.75 -149.95 28.7 -149.45 28.35 -149.8 30.1 -149.1 33.45 -148.4 33 -144.75 37.2Q -143 38.75 -138.65 38.65L -137.95 37.75 -140 34.35 -140 34 -137.85 33.1Q -137.5 32 -138.1 31.55L -139.25 31 -139.25 30.65 -137.8 30.7 -138.4 28.6 -137.4 28.15 -136.75 22.55Q -136.7 19.85 -137.55 19L -136.55 18.6 -137.75 18.2Q -137.0716796875 18.286328125 -137.15 17.15 -137.3 15.65 -136.6 15.65L -136.05 16 -136.05 14.1Q -136.8 14.75 -137.1 14 -137.25 13.55 -137.05 13.1L -135.85 13.45 -135.9 8.05 -134.9 7.95 -135.9 7.4 -134.85 6.95 -136.25 5.1 -135.15 4.95 -135.8 4.35Q -136.2 3.9 -135.45 3.7 -135.05 3.65 -134.65 3.95L -134.25 0.1Q -134.2 -1.9 -133 -3.6L -134.45 -3.6 -131.75 -10.6Q -133 -10.3 -133.3 -10.95L -133.25 -12.7 -132.85 -11.3 -132.3 -13.6 -131.25 -13.3 -131.35 -15.9 -130.3 -16.65 -129.9 -21.9 -128.05 -26.95 -129.95 -26.95 -129.4 -27.65 -127.85 -28.3 -125.95 -33.8 -127.2 -35.1 -125.2 -38.25 -124.85 -38.25 -125.65 -39.1Q -125.4 -39.7 -125.25 -39.95 -125.05 -40.35 -124.95 -40.95 -124.95 -41.1 -125.1 -41.1 -123.7 -41.9 -122.9 -44.55L -121.9 -48.75 -121 -48.8Q -120.45 -48.55 -120.2 -48.05L -121.25 -47.75 -121 -42.35Q -121.05 -39.65 -120.15 -37.15L -120.9 -31.9 -119.95 -30.95 -120.65 -29.05 -119.65 -27.75 -120.45 -25.05Q -120.05 -25.55 -119.45 -24.9L -118.15 -24 -120.1 -23.4 -119.65 -15.3 -118.65 -14.6 -119.65 -14.35 -118.65 -1.95 -117.9 -1.95 -118.1 -0.8 -117.9 3.8 -116.8 6.35 -117.75 6.3 -116.8 6.55 -116.9 11.85 -115.9 11.85 -115.25 15.6 -116 15.95 -115.75 18.4Q -115.3 18.3 -114.75 18.35 -114.4 18.75 -114.4 18.95L -115.05 19.65 -112.85 24.55 -113.85 25.15 -111.9 28.7 -109.95 28.75Q -109.45 28.75 -109.85 29.25 -110.1 29.6 -110.3 30.15L -110.3 30.3 -105 29.55 -103.6 29.9 -103.2 28.9 -101.5 29.8 -100.2 28.55 -100.8 26.85 -99.8 26.5Q -98.35 20.7 -97.85 14.75L -96.9 3 -96.25 2.65 -96.15 -0.7 -94.45 -3.35 -94.8 -4.75 -94.2 -7.5 -93.25 -9.75 -94.65 -10.05Q -93.4 -11.2 -92.5 -15.15L -89.1 -29.25 -90.85 -29.3 -90.85 -29.8 -88.45 -30.75Q -88.2 -33.4 -86.5 -35.65L -86.5 -36.4 -85.65 -33.65 -85.45 -30.65 -84.45 -30.65 -84.65 -28.4 -82.1 -0.7 -81.1 -0.7 -80.8 0.95 -81.05 4Q -81.1 5.6 -80.25 6.4L -79.25 7.2 -80.25 7.4 -79.45 9.35 -78.3 9.4Q -78.25 9.75 -78.5 10 -78.8 10.5 -78.8 10.75 -78.85 11.05 -78.55 11.4L -76.5 11.45 -77.45 13.8 -76.7 14.4Q -76.6 14.8 -76.6 15.3L -74.6 16.9 -71.6 16.6 -71.45 16.4Q -71.25 16.9 -71.25 17.5L -70.95 16.6Q -70.7 16.5 -70.7 16.9 -70.6 17.25 -70.65 17.65 -68.45 17.7 -66.1 16.6 -63.9 15.6 -62.45 13.85L -62.4 12.6Q -61.1 12.45 -59.25 9.9L -53.45 0.3 -52.45 -0.45 -51.3 -3.9 -49.6 -6.95 -51.25 -7.4 -50.9 -8.75Q -50.4 -8.75 -50.15 -8.5 -49.6 -8.05 -49.45 -8.05L -49.3 -8.05 -48.6 -11.15 -47.4 -14 -47.7 -16.35 -48.75 -16.35 -50.35 -13.45Q -51.5 -11.25 -52.55 -11.15L -54.3 -7.5 -52.65 -6.4 -52.7 -6.1 -54.15 -5.9 -55.3 -5.15 -54.7 -3.45 -55.75 -3.85 -56.75 -2.15 -56.15 0.1 -56.15 0.25Q -59.35 0.15 -59.4 2.1 -59.45 2.6 -59.2 3.1L -60.3 5.8Q -61.6 5.6 -62.5 6.3L -64.7 7.55 -67.65 4.6 -69.15 -0.7 -70.1 -6.15 -70.6 -5.65Q -71 -5.4 -71.1 -5.5L -70.85 -10.15Q -70.9 -10.15 -71 -9.65 -71.1 -9.25 -71.3 -9.2L -72 -10.55 -72.8 -10.55 -72.8 -10.85 -71 -10.8 -71.85 -17.25Q -72.5 -17.1 -72.9 -17.9L -73.35 -19.45Q -73.2 -19.7 -73.1 -19.95L -72.6 -19.6 -72.85 -19.3 -71.8 -19.3Q -71.75 -19.8 -72.05 -20.1 -72.4 -20.45 -72.8 -20.25L -72.4 -23.3 -72.35 -33.5 -73.35 -37.9 -72.6 -43.1 -73.4 -51.65 -74.05 -51.65 -73.35 -53.2 -75.5 -54.75 -75.5 -56.05 -79.4 -59.8 -80.75 -59.15 -81.7 -59.85 -83.75 -59.25 -82.8 -58.4 -84.8 -58.3 -86 -55 -87.65 -51.95 -86.2 -49.4 -88.7 -48 -88.25 -44.45 -90.2 -42.45 -89.35 -41.45 -90 -38.25 -90.95 -37.8 -92.75 -32.9 -92.15 -30.45 -93.55 -30.35 -95.35 -20.6 -96.9 -14.6 -98.25 -12.2 -98.95 -9.5 -98.55 -8.95Q -98.55 -8.1 -99.2 -8.1L -99.35 -8.1 -98.75 -5.15 -100.1 -3.85 -100.2 -0.45 -101.6 0.5 -101.3 2.9 -102.3 3.15 -103.2 7.5 -102.75 10.2 -104.45 11.85 -103.85 12.75Q -105.3 15.3 -106.1 15.3 -106.95 15.25 -106.95 12.45L -107.05 7.55 -108.05 7.55 -106.75 7.05 -107.8 1.35 -108.6 -9.45 -108.95 -27.5 -110.25 -28.5 -110.05 -29.65 -109.25 -30.2 -109.85 -32.15 -108.85 -32.65 -108.9 -44.9 -108.25 -45.4 -109.2 -45.9 -109.15 -48.75 -107.8 -49.9 -108.1 -52.95 -107.35 -55.45 -108.95 -56.45 -107.35 -57.45 -106.9 -61.8 -107.85 -63.8 -106.8 -64.1 -107.1 -67.45 -106 -67.45 -105.45 -79.25 -108.4 -80.6 -107.4 -82 -108.05 -83.3 -110.15 -83.6Q -111.35 -83.9 -111.35 -85L -111.35 -85.45 -113.35 -86.8Q -114.5 -86.6 -115.85 -84.2M 3.2 -22.75Q 3.05 -22.65 2.95 -23 2.85 -23.4 2.7 -23.65L 2.55 -23.05Q 2.05 -23.15 1.7 -23.3 1.4 -23.55 1.25 -23.8 1.3 -24.15 1.65 -24.15 1.95 -24.15 1.9 -24.3L -1.4 -25.7Q -3.25 -27.15 -5.35 -27.2L -11.65 -26.4 -11.8 -26.25 -11 -25.75 -12.6 -25.8 -16.5 -24.75Q -16.25 -24.6 -16.25 -24.35 -16.45 -23.85 -16.5 -23.7L -17.9 -23.95Q -18.05 -22.85 -19.9 -22.1L -23.5 -20.4Q -25.2 -19.55 -25.4 -17.9L -25.6 -18.55 -27.4 -17.3 -27.25 -16.35 -27.45 -16.1 -27.65 -16.9 -27.8 -16.9Q -29.3 -16.1 -29.3 -14.3L -29.45 -15.25 -30.45 -15 -29.65 -14.5 -32.4 -12.5 -32.95 -10.4 -33.9 -10.7 -34.85 -9.7 -34.3 -8.55 -36 -8.55 -37.6 -5.4 -38.65 -5.45 -38.65 -4.3Q -39.3 -4.95 -39.05 -4.45 -38.9 -4.15 -38.95 -4L -39.6 -3.65 -39.5 -3.25 -39.5 -3.1 -40 -3.25Q -40.1 -2.9 -40.4 -2.35 -40.65 -1.75 -40.65 -1.45 -40.7 -1.1 -40.4 -0.65 -42.6 0.55 -43 3L -42.65 2.85Q -42.5 3.15 -42.5 3.5 -42.5 3.9 -42.85 4.05 -43 4 -43.1 3.85 -43.25 3.7 -43.35 3.7L -44.8 9.65 -45.3 9.65 -45.45 11 -45.1 11.4 -45.75 12.3 -44.8 16.55Q -44.6 16.3 -44.45 16.1 -44.15 15.85 -43.9 15.85L -43.55 18.25Q -40.9 20.45 -36.85 20.55L -36.2 20.55 -35.5 19.6 -34.3 19.95 -33.95 19.15 -30.7 17.9 -30.4 16.65 -29.75 17.05 -28.4 15.75 -27.8 15.8 -24.3 12.65 -21.35 9 -21.7 8.05 -19.9 7.6 -18.95 6.4 -19.75 6.2 -19.35 4.9 -18.55 5.25Q -18.15 5 -18.05 4.6L -17.15 4.95 -15.8 2.8 -16.15 1.8 -14.95 1.25 -14.1 0.15Q -14.2 -0.35 -14.4 -0.85L -13 -0.85 -12.5 -1.65 -13.35 -2 -12 -3.8 -11 -4 -7.35 -9.55 -7.15 -9.8 -6.65 -7.9 -7.55 -7.9 -7.6 -5.35 -7.9 -5.25 -8.5 -1.9 -8.65 -2.2 -8.85 -2.2 -8.65 -1.25Q -8.6 -0.9 -8.55 -0.4L -9.4 0.05 -9.55 1.15 -8.75 1.95 -9.9 3.6 -10.05 4.9Q -9.65 5.45 -10.5 6.05L -9.7 6.45 -10.75 7.2 -10 7.6 -11.3 9.45Q -11.2 9.9 -11.1 10.15 -10.85 10.75 -10.85 10.9L -11.5 11.3 -11.9 13.1 -11.55 13.6 -11.9 13.75 -12.25 16.3 -11.5 17.1 -12.15 17.1 -12.35 20 -12.2 20.15Q -12.2 20.65 -12.15 21.1 -12.1 21.7 -12.4 22L -13.15 26.15Q -12.9 26.1 -12.85 26.05 -12.6 25.85 -12.5 25.85L -12.7 27.35 -10.35 29.5Q -8.75 30.75 -7.55 30.65L -4.6 30.7 -3.85 30.25 -3.65 29.25 -2.85 29.4 1.6 24.45 1.5 23.15 2.45 23.35 4.8 17.85 5.6 17.7Q 5.6865234375 17.998046875 5.35 17.95 4.95 17.95 4.9 18.3L 5.95 19.55Q 6.45 19.95 7.05 20.2 7.2 20.15 7.2 20.05 7.75 20.6 8.6 21.15L 10.65 22.1Q 10.9 22.1 11 21.95 10.8 21.45 9.55 20.9L 9.75 20.9 11.85 21.15 12.4 22 15.55 21.4 15.8 20.4 15.95 20.9 16.95 20.8Q 17 20.4 16.95 19.95 16.753125 20.19609375 16.75 20.3 16.7494140625 19.899609375 16.6 19.8 16.5 19.75 16.45 19.95 16.3 20.15 16.3 20.1L 16.35 19.45Q 16.55 19.25 16.8 19.5 17.2 19.8 17.25 19.95 18.75 20 20.15 18.55L 22.2 16.05 23.1 16.1 26.15 13.15Q 26.05 13.05 26.15 12.9 26.35 12.55 26.55 12.5L 25.8 11.9 28.05 10.35Q 28.9 10.35 28.9 9.65L 28.55 9.85 28.9 9.35 32.5 5.95 32 5.6 33.6 4.05 33.2 2.75 34.95 2.3 36.8 0.15 36.3 -0.75Q 36.5 -1.05 36.8 -1.15 37.2 -1.15 37.4 -1L 37.95 -2.7 38.6 -2.7 45.2 -13.1 47 -13.75Q 48.1 -13.7 48.05 -12.05L 48 -9.65 47.4 -9.7 47.95 -7.3Q 49.9 -7.4 48.75 -6.9 47.5 -6.35 47.65 -5.5 47.7 -4.85 47.8 -4.2 47.75 -3.6 48 -3.3L 48.2 1.85 47.15 2 47.1 4Q 47.5 4 47.7 4.15 47.75 4.55 47.7 4.7L 47.25 4.85 47.45 4.4 47.1 4.35 47.05 5.9Q 47.45 6.1 47.85 6.1 48.2 6.1 48.45 6.3 48.3 6.45 48.1 6.6 47.65 6.85 47.4 7 46.9 7.15 46.75 6.9L 46.15 16.95 46.95 16.95 46.8 17.1 46.5 17.1 45.45 19.65 45.9 20.8 44.75 28.15 43.75 28.45 42.25 33.75Q 42.7 34 42.05 35.15L 40.7 37.15Q 40.85 37.35 40.5 37.7L 40.15 37.95 38.3 39.05 38.8 39.45Q 38.75 39.85 38.55 40L 37.45 39.3 30.6 45.05 30.45 45.05Q 30.8 45.3 31.1 45.45 31.45 45.5 31.25 45.9L 30.6 45.85 30.9 46.35 30.25 46.35 27.8 48.05Q 27 48.6 26.35 48.8 26.2 48.7 26.2 48.65L 26.2 48.45 24.1 50.45 24.25 50.65 23.9 50.45 21.7 52.2Q 22.7 52.75 22 53.1L 20.8 54.75 20.3 54.75 20.35 53.7 17.05 56.95 17.05 57.7 15.4 58.8 15.85 59.15 13.75 61.15 12.4 63.55 11.75 63.4 10.7 65.05 10.95 65.25 10.5 65.55 7.05 71.05 7.5 71.4 6.25 73.95 6.6 74.15Q 6.5 74.5 6.25 74.7 5.85 74.95 5.6 74.85L 5.25 77.15 5.55 77.8Q 4.2 78.85 4.15 81.3L 4.75 83.7 4.3 83.7 4.05 84.65 3.9 85.85 4.3 89.75 3.8 90Q 3.9 90.3 4.05 90.55 4.3 91.05 4.3 91.2L 4.3 92.85Q 4.25 93.25 4.2 93.6 4.3 95.95 5.4 97.85L 7.25 102.15Q 7.4 102.3 7.65 102.85L 8.65 103.25 8.95 104.7Q 9.4 104.5 9.6 104.7 9.85 105.15 9.6 105.2L 11.4 106.8 13.55 107.5 13.55 107.05 12.6 105.5 12.3 105.65Q 12.1 105.25 12.05 104.85 12 104.3 11.15 104.95 11.65 105.75 11.15 105.6L 10.6 101.75Q 10.15 102 9.85 101.85L 9.45 97.35 8.95 97.35 9.3 96.05Q 9.55 96.05 9.6 96.55 9.55 95.9 9.6 95.75L 9.55 92.7 8.75 92.55 9.4 91.8Q 9.25 91.4 9.05 91.25 8.7 91 8.8 90.8L 9.6 90.8 9.6 89.35Q 9.2 89.35 9.1 89.1 8.85 88.55 8.85 88.3 8.85 87.85 9.15 87.65 9.65 87.8 9.8 87.95L 9.7 86.5 10.05 86.5 9.75 84.75 10.25 84.6 10.85 82.55 10.3 82.15 10.35 78.95Q 10.6 78.65 11 78.85 11.35 78.95 11.75 79 11.6 76.65 12.85 73.1L 15.2 67.6 15.65 68.05 15.9 65.7Q 16.7 65.85 16.6 65.35 16.6 65.05 16.75 64.7 17.15 64.45 17.5 64.3 17.9 64.1 18.05 63.85 17.8 63.55 17.7 63.15 17.55 62.65 17.8 62.7 18.85 62.9 18.7 62.05L 19.2 60 19.7 60 19.5 61.1 20.75 59.1 21.95 57.6Q 22.15 57.65 22.3 57.85L 24.15 55.3 24.05 54.5Q 24.65 54.95 25.15 55L 25 53.65 28.8 50.15 29.2 50.2 28.95 49.7 29.6 48.9 30.7 48.55Q 31.1 48.7 31.15 48.8L 31.85 46.9Q 32.2 46.6 32.45 46.6 32.95 46.75 33.1 46.9L 34.25 46.15 34.15 45Q 34.3 44.9 34.4 45.1 34.45 45.4 34.45 45.5L 40.45 41.45Q 40.15 41.95 40 42.55 39.8 43.15 39.75 43.7L 39.75 43.95Q 39.95 44.1 40.15 43.9 40.4 43.65 40.4 43.75L 39.45 44.6 39.3 44.6 39.7 45.25 38.95 45.6 37.35 50.5Q 37.7 50.4 37.8 50.55 37.6 51.05 37 51.25L 36.65 54.3 36.15 54.05Q 36.2 54.6 35.95 54.6L 35.3 58.3 35.3 58.95Q 35.25 59.35 35.1 59.4L 34.8 59.05 33.4 62.75Q 32.75 62.35 32.9 63.05 33 63.5 33.05 64.05L 30.05 69.25 28.95 71.8Q 28.65 72.7 29.5 72.05L 29.95 72.4 29.45 73.05 29 73.05 29.45 74 28.65 74 26.9 76.9 25.8 79.95 25.9 81.3 25.45 81.25 24.5 83.15Q 25.4 83.3 25.25 82.6 25.1 81.75 26.25 82.7L 25.85 83.05 24.9 83.3 24.65 84.85Q 24.6 86 23.75 86 23.6 85.95 23.55 85.9 23.35 85.8 23.3 85.8L 22.9 88.4 22.1 88.4 19.8 93.75Q 20.85 94.1 20.05 95.25L 18.75 95.75 17.9 98.05Q 17.85 98.4 18 98.85L 17.25 98.85 16.25 101.2Q 16.15 101.7 16.3 102.25 16 102.9 15.05 103.4L 15.3 105.7Q 15.15 106.45 16.3 106.6 17.5 106.8 17.45 107.6L 21.15 107.4 23.65 106.45Q 24.55 105.05 25.25 104.4L 25.25 104.6 27.65 100.3Q 28.55 100.35 28.55 99.1 28.55 98.65 28.45 98.15L 29.1 96.4 30.45 95Q 29.8 95.45 30.05 94.65 30.35 93.85 30.45 94.65L 31.6 91.8 31.05 91.65 32.45 89.9Q 31.8 89.5 32.15 88.7 32.3 88.25 32.8 88L 32.95 88.2 32.85 86.05Q 32.85 85.55 33.25 85.75 33.75 85.95 33.85 85.9L 33.25 83.85 33.55 83.7 33.9 84.15Q 34.15 83.7 34.3 83.45 34.6 82.85 34.6 82.55 34.6 82.15 34.4 81.95L 35.55 80.85 34.95 80.05 36.2 79.05 36.25 78.5 35.7 79.05 35.4 78.35Q 35.25 78 35.5 78 35.75 78.1 35.75 78.15L 37.1 76.4 36.6 76.2 37.1 74.85 37.45 75.05 38.15 73.05Q 37.2 72.25 38.15 69.9L 39.5 66.75 39.85 67.4 40 65.9Q 40.4 65.35 40.65 64.45L 41.5 61.85Q 41.9 60.9 41.95 60.1 41.8 59.6 41.7 59.15L 42 58.6 42.35 58.6 42.4 56.75Q 43.45 56.4 43.1 55.9 42.9 55.6 42.7 55.25L 43.3 55.1Q 43.35 54.2 43.4 53.05L 43.95 49.95Q 44.25 48.6 45.05 48.75L 45.5 46.05Q 45.6 46.2 45.65 45.8 45.85 45.4 46 45.1L 45.7 43.2 46.45 39.2 47.35 39.1 47.8 35.4 50.3 32.6Q 51.15 33.85 51.05 32.55L 51.35 31.35Q 51.7 31.5 52 31.8L 54.8 29Q 56.6 27.6 56.65 25.85L 57.3 26.05 59.1 22.7 61.4 20 62.05 20 62.45 17.35Q 63.1 17.5 64.45 15.95L 64.6 15.45 64.8 16.35 65.3 17.7 64.6 19.5 64.4 22.4 64.65 24 66.15 24.95 64.45 25.9 64.5 27.2 65.05 28.25 64.5 31.45 64.85 37.9 65.7 42.7Q 66.85 45.4 68.75 46.7 70.65 48.05 71.6 49.9L 75.3 49.6 74.4 45.95 75.2 40.2 74.65 34.25 75.35 32.85Q 75.45 33.2 75.6 33.35 75.9 33.65 76 33.5L 75.5 26.5Q 77.05 25.7 77.25 24.15L 77.55 20.9 78.4 17.85 77.4 17.2 77.4 16.9 78.4 16.9 79.35 12 78.9 10.2 80.05 8.35 80.75 5.8 80.35 4.5 81.75 2.85 81.55 -0.85 82.85 -1.5 82.5 -3.05 81.9 -4.55 83.95 -5.15 83.85 -6.35 83.35 -7.5 84 -9.15 86.1 -9.75 87.55 -6.9 88.3 -3.65Q 88.65 -4 88.95 -4.15 89.3 -4.3 89.6 -4.05L 88.6 -2.65 89.35 -0.4Q 89.7 0.7 91.15 1.05L 91.45 4.4 92.75 5.45 92.45 6.75 92.4 8.15 92.8 10.7Q 93.25 11.85 94.6 12.2L 93.85 13.15 95.6 14.6 95.85 16.55 97.15 17.35 96.15 17.65 99.15 22.05Q 100.8 24.3 103.35 25.15L 104.35 24.5Q 104.9 24.65 105.55 24.9 105.9 25.3 106.05 25.85L 107.5 26.25Q 108.55 26.25 109.1 25.3L 109.35 26.3 111.05 24.65 112.1 25.35 114.45 22.05 115.5 22.05Q 115.3 20 116.45 18.85L 116.5 18.75 116.85 20.25Q 117.05 20 117.2 19.8 117.5 19.55 117.75 19.55L 118.1 21.95Q 120.75 24.15 124.8 24.25L 125.45 24.25 126.15 23.3 127.35 23.65 127.7 22.85 130.95 21.6 131.25 20.35 131.9 20.75 133.25 19.45 133.85 19.5 137.35 16.35 140.3 12.7 139.95 11.75 141.75 11.3 142.7 10.1 141.9 9.9 142.3 8.6 143.1 8.95Q 143.5 8.7 143.6 8.3L 144.5 8.65 145.85 6.5 145.5 5.5 146.7 4.95 147.55 3.85Q 147.45 3.35 147.25 2.85L 148.65 2.85 149.15 2.05 148.3 1.7 149.65 -0.1 150.65 -0.3 154.3 -5.85 154.5 -6.1 155 -4.2 154.1 -4.2 154.05 -1.65 153.75 -1.55 153.15 1.8 153 1.5 152.8 1.5 153 2.45Q 153.05 2.8 153.1 3.3L 152.25 3.75 152.1 4.85 152.9 5.65 151.75 7.3 151.6 8.6Q 152 9.15 151.15 9.75L 151.95 10.15 150.9 10.9 151.65 11.3 150.35 13.15Q 150.45 13.6 150.55 13.85 150.8 14.45 150.8 14.6L 150.15 15 149.75 16.8 150.1 17.3 149.75 17.45 149.4 20 150.15 20.8 149.5 20.8 149.3 23.7 149.45 23.85Q 149.45 24.35 149.5 24.8 149.55 25.4 149.25 25.7L 148.5 29.85Q 148.75 29.8 148.8 29.75 149.05 29.55 149.15 29.55L 148.95 31.05 151.3 33.2Q 152.9 34.45 154.1 34.35L 157.05 34.4 157.8 33.95 158 32.95 158.8 33.1 163.25 28.15 163.15 26.85 164.1 27.05 166.45 21.55 167.4 21.4 168.35 20.25 167.95 19.6 169 19.3 169.65 17.6 169.95 15.95 170.45 15.95 169.95 15.45 170.45 15.05 170.25 15.05 169.95 14.9 170.95 14.1 171.2 10.6Q 171.25 10.1 171.4 9.85 171.55 9.3 171.55 9.15L 170.75 8.6Q 170.1 8.6 169.9 9.5L 169.2 11.05Q 169.55 11.1 169.65 11.6 169.6 12.2 169.5 12.45 169.25 12.25 169.15 12.1 168.9 11.7 168.75 11.7L 164.05 19.75 161.55 23.25 161.4 24.9 161 24.9Q 160.75 25 160.75 25.05L 160.45 27.1 160.1 25.95 159.3 25.9 158.3 26.6 158.25 27.7 158.1 27.7 156.95 26.2 157.5 21.35 158.5 16.85 157.35 15.15 158.25 15.2 158.25 16.05 158.4 16.05Q 159.2 14.95 159.45 12.75L 159.7 9.15 159.2 9.15 160.05 7.6 160.55 6.35Q 160.55 5.95 160.4 5.85L 160.25 5.7Q 160.15 5.55 160.3 5.55 160.55 5.45 160.4 5.35L 159.95 5.15 161.3 1.85Q 161.4 1.35 161.15 1.1L 158.9 -1.05 162.1 -1.2 162.25 -2.75 162.2 -4.05 162.55 -4.65Q 162.35 -4.95 162.2 -4.95 161.9 -5.25 162.1 -5.7L 162.6 -7Q 162.9 -7.2 163.4 -7.2L 163.7 -8.4 163.8 -9.55Q 163.85 -9.95 163.65 -10.55L 164.15 -10.7 164.15 -10.35Q 164.15 -10.05 164.3 -10.3 164.5 -10.8 164.5 -10.85L 164 -12 164.35 -12.9 165 -12.85 165.45 -17.7 166.2 -17.7 164.85 -19.05Q 164.7 -18.95 164.6 -19.3 164.5 -19.7 164.35 -19.95L 164.2 -19.35Q 163.7 -19.45 163.35 -19.6 163.05 -19.85 162.9 -20.1 162.95 -20.45 163.3 -20.45 163.6 -20.45 163.55 -20.6L 160.25 -22Q 158.4 -23.45 156.3 -23.5L 150 -22.7 149.85 -22.55 150.65 -22.05 149.05 -22.1 145.15 -21.05Q 145.4 -20.9 145.4 -20.65 145.2 -20.15 145.15 -20L 143.75 -20.25Q 143.6 -19.15 141.75 -18.4L 138.15 -16.7Q 136.45 -15.85 136.25 -14.2L 136.05 -14.85 134.25 -13.6 134.4 -12.65 134.2 -12.4 134 -13.2 133.85 -13.2Q 132.35 -12.4 132.35 -10.6L 132.2 -11.55 131.2 -11.3 132 -10.8 129.25 -8.8 128.7 -6.7 127.75 -7 126.8 -6 127.35 -4.85 125.65 -4.85 124.05 -1.7 123 -1.75 123 -0.6Q 122.35 -1.25 122.6 -0.75 122.75 -0.45 122.7 -0.3L 122.05 0.05 122.15 0.45 122.15 0.6 121.65 0.45Q 121.55 0.8 121.25 1.35 121 1.95 121 2.25 120.95 2.6 121.25 3.05 119.05 4.25 118.65 6.7L 119 6.55Q 119.15 6.85 119.15 7.2 119.15 7.6 118.8 7.75 118.65 7.7 118.55 7.55 118.4 7.4 118.3 7.4L 117.35 11.15 117.15 11.5Q 116.65 12.3 116.75 13.05L 116.5 13.35 116.35 13.35 116.3 13.6 116.05 14 116.3 15.4 116 15.4 115 14.7 113.6 16.6 113.9 18.05 112.25 19 112.25 19.3Q 112.2 20.95 110.15 21.3L 106.75 21.85Q 105.35 20.65 104.8 19.1L 103.8 19.75 103.45 19.75 104.15 18.15 102.6 15.05 100.9 14.4 101.1 12.35Q 101.15 10.4 99.1 7.65L 99.35 6.25Q 99.4 5.9 99.45 5.45L 98.55 3.2 98.9 1.6 98.2 1.55 98.3 -2.8 96.95 -3.85 98 -6.15 97.4 -18.65Q 97.1 -22.45 95.9 -25.15 94.65 -27.85 92.2 -27.9 90.15 -27.95 86.75 -25.55L 86.65 -22.85 85.85 -22.25 84.6 -20.85 83.25 -12.8Q 82.9 -10.65 81.75 -10.5L 82.4 -10.2 81.3 -8.45 80.6 -6.2Q 80.75 -5.65 80.9 -5.25L 80.85 -4.9 80.25 -5.25 79.5 -2.55 80.1 -0.5 78.8 0.1 78.05 3.8 78.3 6.5Q 77.25 6.65 77.25 7.8L 77.2 8.1 75.5 11.45Q 75.6 12 75.8 12.4L 74.8 13.05 73.65 22.75Q 73.45 22.35 73.25 22.1 72.8 21.85 72.55 22.1 72.65 22.5 72.75 22.9 72.85 23.4 72.85 23.95 72.85 24.3 72.7 24.3 72.45 24.15 72.2 23.8L 72.15 25.75 71.8 25.7 71.8 24.35 71.2 23 71.6 21.7 71.65 20.4 71.1 14.35Q 72.3 13.6 72.3 12.2 72.35 11.85 72.15 11.35 70.85 10.65 71.9 8.95L 71.25 8.3 71.7 7.3 72.6 6.7 72.3 3.95 72 3.3 71.65 3.65 72.6 0.5 73.1 -2.7 72.55 -5.75Q 73 -5.8 73.15 -5.55 73.5 -5.25 73.9 -5.4L 73.95 -6.95 73.25 -8.4 74.65 -9.05 74.7 -10.4 73.65 -10.4 74.7 -11.45 74.1 -14.8 75.45 -15.4 76.15 -17.7 74.85 -18.05 76.95 -21.8 76.3 -23.1 77.3 -23.75 77 -24.4 77.85 -25.9 77.4 -28.1 78.05 -29.1Q 78.1 -30.75 76.85 -32.1L 76.85 -32.8Q 76.45 -32.1 75.8 -31.45L 74.55 -33.85 72.75 -33.9 71.15 -34.9 70.85 -33.95 69.3 -34.85 67.5 -35.3Q 67.1 -35.3 66.85 -35.25 66.45 -35.2 66.2 -35.05L 65.85 -34.05 64.15 -34.45Q 62.35 -34.5 61.45 -32.45L 59.75 -32.5 62.9 -31.15 66.4 -30.7 66.05 -29.05Q 67 -29 67 -27.8 66.95 -26.3 66.3 -26.35L 66.45 -22.2 67.85 -18.2Q 67.85 -17.8 67.4 -17.25L 66.1 -16.65 66.7 -15.25 66 -12.95Q 67.3 -12.75 66.55 -10.7L 65.6 -8.3 65.3 6.2Q 65.319140625 6.810546875 65.35 7.3 64.983203125 7.9501953125 64.75 8.65 65.266796875 8.508984375 65.4 10 65.3376953125 10.3876953125 64.8 9.85 64.746484375 10.0103515625 64.7 10.15L 64.35 10.15Q 64.6 9.55 64.25 9.5L 61.35 15.4Q 61.25 15.75 61.1 15.65 60.9 15.6 60.9 15.4L 60.05 17.25 59.9 16.9 58.75 18.2 59.35 18.4 59 18.9Q 59.1 19.05 59.25 19.05L 59.35 19.05Q 58.85 19.45 58.55 19.85 58.2 20.2 57.7 20.4L 57.45 20.3Q 57.45 20.2 57.3 20.2L 56.45 22.35 55.95 22.2 54.4 24.5Q 54.1 24.4 53.85 24.5 53.45 24.75 53.3 24.95L 52.35 26.85 50.3 28.75Q 49.35 29.4 49.4 28.6 49.5 28.15 49.5 27.9 49.65 27.35 49.75 26.95L 49.45 26.35 49.65 24.9 49.95 25.05 50.15 24.4 49.35 24.4 49.2 24.1 50.15 23.9 50.2 21.8Q 50.2 20.65 49.95 19.9L 50.9 17.35 51.05 17.7 51.75 14.7Q 51.5 14.4 51.5 14 51.65 13.65 51.65 13.6L 51.95 11.7Q 51.8 11.1 52 10.7L 52.6 7.05 52.5 3.2 52 3.2 52.7 1.65 52.45 -0.15 53 -2.2Q 53 -3.5 52.3 -3.5L 52.4 -7.55 51.8 -8.25 52.65 -8.6 52 -10.25 52.5 -10.4 51 -13.45 51 -14.1 51.35 -13.65 51.05 -15.1 51.95 -16.65Q 52.45 -15.45 52.8 -16.1L 53.55 -19Q 52.9 -19.7 52.3 -20.7 51.7 -21.75 51.2 -22.4L 49.1 -22.9Q 49.6 -23.25 49.15 -23.6L 48.1 -23.9Q 47.65 -23.95 47.45 -23.65L 45.95 -23.95 45.15 -25.3 44.25 -24.5Q 43.85 -24.4 43.5 -24.8 43.35 -25.3 43.1 -25.35L 42.6 -24.85 42.6 -25.35 40.05 -24.75 39.9 -25.1 37.35 -24.65 36.8 -23.55Q 35.4 -23.9 34.45 -23.25L 32.15 -22.25Q 33 -22.35 32.6 -21.55 32.3 -20.8 31.65 -21.75L 30.05 -21.15Q 30.55 -20.3 28.7 -19.85 27.35 -19.6 26.5 -19L 26.45 -16.9 25.8 -16.95Q 25.85 -18.4 25.2 -17.9 23.25 -16.8 23.25 -16 23.2 -15.1 21.4 -14.8 20.45 -14.35 20.45 -13.5L 20.45 -13.35Q 17.7 -12.5 17.65 -10.05L 14.95 -8.3Q 13.75 -7.45 13.5 -5.4L 13.05 -6.15 11.6 -3 10.55 -1.95Q 10 -1.5 9.6 -1.15L 8.65 0.55 7.9 2.45Q 7.9 2.8 8.1 3.35L 6.55 5 6.9 5.35 4.55 10.75 4.55 10.9 4.05 12.65 4.2 12.95 -0.1 19.55 -0.25 21.2 -0.65 21.2Q -0.9 21.3 -0.9 21.35L -1.2 23.4 -1.55 22.25 -2.35 22.2 -3.35 22.9 -3.4 24 -3.55 24 -4.7 22.5 -4.15 17.65 -3.15 13.15 -4.3 11.45 -3.4 11.5 -3.4 12.35 -3.25 12.35Q -2.45 11.25 -2.2 9.05L -1.95 5.45 -2.45 5.45 -1.6 3.9 -1.1 2.65Q -1.1 2.25 -1.25 2.15L -1.4 2Q -1.5 1.85 -1.35 1.85 -1.1 1.75 -1.25 1.65L -1.7 1.45 -0.35 -1.85Q -0.25 -2.35 -0.5 -2.6L -2.75 -4.75 0.45 -4.9 0.6 -6.45 0.55 -7.75 0.9 -8.35Q 0.7 -8.65 0.55 -8.65 0.25 -8.95 0.45 -9.4L 0.95 -10.7Q 1.25 -10.9 1.75 -10.9L 2.05 -12.1 2.15 -13.25Q 2.2 -13.65 2 -14.25L 2.5 -14.4 2.5 -14.05Q 2.5 -13.75 2.65 -14 2.85 -14.5 2.85 -14.55L 2.35 -15.7 2.7 -16.6 3.35 -16.55 3.8 -21.4 4.55 -21.4 3.2 -22.75M 33.75 -13.2L 33.75 -13.55 34.85 -13.5 36.3 -14.45 36.65 -15.45 43.1 -17.5 43.1 -17.85 45.15 -17.8 43.95 -15.8 43 -13.5Q 43 -13.15 43.35 -13 42.9 -12.75 42.35 -12.7L 41.95 -10.95 41.15 -11.15 40.45 -9.85 39.85 -8.3 39.55 -8.75 38.75 -7.8Q 38.6 -7.4 38.35 -6.9L 37.85 -6.9 37.15 -5.6Q 36.85 -5 36.25 -4.55L 36.35 -3.9 35.9 -3.45Q 35.8 -3.1 35.65 -3 35.3 -2.85 35.05 -2.75L 33.85 -1.9 33.45 -0.3 32.95 -0.6 32.8 -0.6 33.4 0.35 33.4 1 33.1 1Q 33 0.7 32.6 0.55L 31.95 0.5 31.1 1.85 29.85 2.8 30.25 3Q 30.25 3.4 30.35 3.85 30.35 4.3 30 4.3L 30 3.35 29.35 3.3 26.05 6.75 26.25 7.1 25.9 8.65 25.35 8.95 24.9 8 23.4 9.25 23.7 10.25Q 23.15 10.1 22.65 9.85L 21.75 10.75 21.15 11.8 20.65 11.75 20.3 12.85 17.35 13.75 14.65 15.45 12.6 14.5 12.65 11.6 12.95 11.85 14.3 9 13.65 8.65Q 13.95 8.35 13.9 7.75 14.45 7.75 15 7.65L 15.75 6.35 16.8 5.25 16.35 4.15 16.7 4.15Q 16.75 3.9 16.9 4.1 17.1 4.35 17.35 4.2L 18.15 2.55 18.35 0.65 18.55 0.65 18.35 1.75 19 1.95 19 0.9 19.5 0.9 19.2 1.6 19.35 1.6 19.9 0.4Q 21.55 0.1 21.6 -1.5L 22.6 -2.1Q 22.15 -3.4 23.6 -4.1 25.05 -4.8 25.4 -6.05L 25.85 -5.65 27.4 -7.3 28.5 -9.15 30.3 -10Q 31.55 -10.75 31.4 -11.4L 32.25 -11.4 33.75 -13.2M 139.5 -6.2Q 139.85 -6.6 139.6 -6.75 142.2 -9.5 145.45 -10.95L 145.1 -11.15Q 145.45 -11 145.75 -10.95 146.25 -10.75 146.25 -11.6L 145.9 -11.6Q 145.25 -12.25 146.5 -12.1 147.3 -12 147.9 -11.85L 149.5 -12.85 149.5 -13.6 150.3 -13.55 149.95 -14.2 151.45 -13.85 151 -15 151.5 -15 152.5 -14.45Q 152.9 -14.45 153.05 -14.7 153.15 -15.2 152.9 -15.3L 155.25 -15.4Q 156.55 -15.5 156.95 -16.75L 157.4 -16.15 157.05 -15.85 157.35 -13.4 156.2 -13.4 155.85 -12.55 156.2 -12.5 155.3 -12.2 155.15 -10.9Q 154.75 -11 154.4 -10.65 154.4 -10.25 154.75 -10.25L 154.6 -10.1 153.9 -9.95 153.25 -8.9 154.2 -8.55 154.2 -8.2 153.25 -8.75 150.75 -5.6Q 151.8 -5.55 151.5 -4.6L 150.1 -4.6 149.4 -3.5 149.4 -1.75 148.6 -1.95Q 148.1 -2.15 147.75 -1.75 147.55 -1.25 147.3 -1L 147.65 -0.85 145.85 0.6 146.1 1.35Q 145.95 2.3 144.95 2.55L 143.5 3.55 143.85 3.55 142 5.3Q 140.85 6.05 140.4 7.5L 139.1 8.05 139.25 8.85 138.6 8.7 137.4 9.8 137.35 12 137.2 12 136.1 11.5 133.05 13.7 132.05 14.2Q 132.3 14.45 132.7 14.45 133.2 14.55 133.2 14.75L 130.6 15.4 130.2 15.85 131.05 15.85 129.8 16.35 130.05 16.05Q 129.05 15.5 128.65 16.45L 128.95 18.2Q 128.7 18.1 128.45 17.85 128.15 17.45 128.15 17.15 128.4 17.05 128.15 16.8L 124.45 18.6 124.1 18.6 124.45 17.95Q 123.15 18.1 123.5 16.7L 122.6 16.65 124.25 11.55Q 123.85 11.2 123.75 11.05 123.65 10.65 123.8 10.65L 125.3 10.7 125.35 8.55 126.5 8.55 127.1 6.35 127.55 6.9 129.55 4.35Q 130.5 3.1 130.55 1.45L 130.55 1 132.4 -0.2 132.75 -0.05 134.3 -1.45 135.5 -3.5 137.35 -4.35 138.4 -5.75 138.75 -5.35 138.8 -6.45Q 139 -6 139.5 -6.2M 5 11.5Q 4.8884765625 11.4837890625 4.7 11.4L 4.7 10.75 5.3 11.05 5 11.5M -31.1 -2.25L -31.1 -2.7 -29.25 -3.9 -28.9 -3.75 -27.35 -5.15 -26.15 -7.2 -24.3 -8.05 -23.25 -9.45 -22.9 -9.05 -22.85 -10.15Q -22.65 -9.7 -22.15 -9.9 -21.8 -10.3 -22.05 -10.45 -19.45 -13.2 -16.2 -14.65L -16.55 -14.85Q -16.2 -14.7 -15.9 -14.65 -15.4 -14.45 -15.4 -15.3L -15.75 -15.3Q -16.4 -15.95 -15.15 -15.8 -14.35 -15.7 -13.75 -15.55L -12.15 -16.55 -12.15 -17.3 -11.35 -17.25 -11.7 -17.9 -10.2 -17.55 -10.65 -18.7 -10.15 -18.7 -9.15 -18.15Q -8.75 -18.15 -8.6 -18.4 -8.5 -18.9 -8.75 -19L -6.4 -19.1Q -5.1 -19.2 -4.7 -20.45L -4.25 -19.85 -4.6 -19.55 -4.3 -17.1 -5.45 -17.1 -5.8 -16.25 -5.45 -16.2 -6.35 -15.9 -6.5 -14.6Q -6.9 -14.7 -7.25 -14.35 -7.25 -13.95 -6.9 -13.95L -7.05 -13.8 -7.75 -13.65 -8.4 -12.6 -7.45 -12.25 -7.45 -11.9 -8.4 -12.45 -10.9 -9.3Q -9.85 -9.25 -10.15 -8.3L -11.55 -8.3 -12.25 -7.2 -12.25 -5.45 -13.05 -5.65Q -13.55 -5.85 -13.9 -5.45 -14.1 -4.95 -14.35 -4.7L -14 -4.55 -15.8 -3.1 -15.55 -2.35Q -15.7 -1.4 -16.7 -1.15L -18.15 -0.15 -17.8 -0.15 -19.65 1.6Q -20.8 2.35 -21.25 3.8L -22.55 4.35 -22.4 5.15 -23.05 5 -24.25 6.1 -24.3 8.3 -24.45 8.3 -25.55 7.8 -28.6 10 -29.6 10.5Q -29.35 10.75 -28.95 10.75 -28.45 10.85 -28.45 11.05L -31.05 11.7 -31.45 12.15 -30.6 12.15 -31.85 12.65 -31.6 12.35Q -32.6 11.8 -33 12.75L -32.7 14.5Q -32.95 14.4 -33.2 14.15 -33.5 13.75 -33.5 13.45 -33.25 13.35 -33.5 13.1L -37.2 14.9 -37.55 14.9 -37.2 14.25Q -38.5 14.4 -38.15 13L -39.05 12.95 -37.4 7.85Q -37.8 7.5 -37.9 7.35 -38 6.95 -37.85 6.95L -36.35 7 -36.3 4.85 -35.15 4.85 -34.55 2.65 -34.1 3.2 -32.1 0.65Q -31.15 -0.6 -31.1 -2.25 Z"></path><path fill="#000000" stroke="none" d="M -147.25 -100.35Q -122 -117 -123.1 -129 -160.7 -99.9 -155.1 -96.65 -122.15 -97.25 -104.35 -98.35 -78.9 -99.95 -84.4 -102.7L -115.65 -126.1Q -112.95 -116.65 -96.95 -107.25 -94 -106.15 -108.4 -103.1 -122.8 -100.1 -147.25 -100.35 Z"></path></g><g id="Symbol_2_copy_0_Layer0_1_FILL"><path fill="#000000" stroke="none" d="M 118.45 41.2Q 117.7 40.4 116.5 40.4 115.2 40.4 114.4 41.3 113.65 42.15 113.65 43.4 113.65 44.7 114.5 45.55 115.35 46.35 116.7 46.35 117.9 46.35 118.8 45.8L 118.85 44.9Q 117.8 45.55 116.85 45.55 114.85 45.55 114.65 43.65L 119.05 43.65 119.1 43.1Q 119.1 41.95 118.45 41.2M 116.45 41.2Q 117.25 41.2 117.7 41.65 118.1 42.1 118.15 42.9L 114.65 42.9Q 114.75 42.1 115.25 41.65 115.75 41.2 116.45 41.2M 109.8 37.15L 110.9 37.15 110.9 41.05Q 110.15 40.4 109.1 40.4 107.85 40.4 107 41.3 106.25 42.15 106.25 43.4 106.25 44.7 107.05 45.55 107.8 46.35 109 46.35 110.1 46.35 110.9 45.45L 110.9 46.25 112.75 46.25 112.75 45.45 111.8 45.45 111.8 36.35 109.8 36.35 109.8 37.15M 107.75 41.8Q 108.3 41.2 109.15 41.2 110.1 41.2 110.9 41.85L 110.9 44.7Q 110.05 45.55 109.1 45.55 108.3 45.55 107.75 44.95 107.2 44.35 107.2 43.4 107.2 42.45 107.75 41.8M 101.1 40.9Q 100.55 41.35 100.55 42.05 100.55 42.8 101.15 43.2 101.6 43.5 102.8 43.8 103.5 43.95 103.8 44.15 104.15 44.35 104.15 44.7 104.15 45.15 103.75 45.4 103.35 45.6 102.75 45.6 101.9 45.6 101.45 45.3 101.55 45.05 101.55 44.95 101.55 44.35 100.95 44.35 100.7 44.35 100.5 44.55 100.35 44.7 100.35 45 100.35 45.4 100.65 45.7 101.35 46.35 102.75 46.35 103.7 46.35 104.35 45.9 105.05 45.4 105.05 44.65 105.05 43.85 104.4 43.45 104 43.15 102.9 42.9 102.1 42.7 101.8 42.55 101.45 42.3 101.45 42 101.45 41.65 101.75 41.4 102.15 41.15 102.7 41.15 103.4 41.15 103.7 41.35 103.65 41.5 103.65 41.65 103.65 41.95 103.8 42.1 104 42.25 104.25 42.25 104.5 42.25 104.65 42.1 104.85 41.9 104.85 41.65 104.85 41.25 104.55 40.95 103.95 40.4 102.75 40.4 101.75 40.4 101.1 40.9M 98.55 41.2Q 97.8 40.4 96.6 40.4 95.3 40.4 94.5 41.3 93.75 42.15 93.75 43.4 93.75 44.7 94.6 45.55 95.45 46.35 96.8 46.35 98 46.35 98.9 45.8L 98.95 44.9Q 97.9 45.55 96.95 45.55 94.95 45.55 94.75 43.65L 99.15 43.65 99.2 43.1Q 99.2 41.95 98.55 41.2M 96.55 41.2Q 97.35 41.2 97.8 41.65 98.2 42.1 98.25 42.9L 94.75 42.9Q 94.85 42.1 95.35 41.65 95.85 41.2 96.55 41.2M 91.05 38.55Q 89.65 37.35 87.3 37.35L 84 37.35 84 38.25 85.1 38.25 85.1 45.35 84 45.35 84 46.25 87.3 46.25Q 89.7 46.25 91.1 45 92.45 43.75 92.45 41.7 92.45 39.75 91.05 38.55M 86.15 38.25L 87.3 38.25Q 89.2 38.25 90.3 39.15 91.4 40.1 91.4 41.7 91.4 43.4 90.4 44.35 89.35 45.35 87.4 45.35L 86.15 45.35 86.15 38.25M 147.2 42.85Q 147.85 42.6 148.25 42.1 148.65 41.55 148.65 41.05 148.65 40.05 147.85 39.45 147.1 38.85 146 38.85 144.9 38.85 144.15 39.45 143.35 40.05 143.35 41.05 143.35 41.55 143.75 42.05 144.15 42.6 144.8 42.85 144.1 43.1 143.65 43.6 143.2 44.15 143.2 44.8 143.2 45.8 143.95 46.45 144.75 47.1 146 47.1 147.25 47.1 148.05 46.45 148.8 45.8 148.8 44.8 148.8 44.15 148.35 43.6 147.9 43.1 147.2 42.85M 147.2 40.05Q 147.65 40.45 147.65 41.1 147.65 41.65 147.2 42.1 146.7 42.5 146 42.5 145.3 42.5 144.85 42.1 144.35 41.65 144.35 41.1 144.35 40.45 144.8 40.05 145.3 39.65 146 39.65 146.7 39.65 147.2 40.05M 146 46.35Q 145.2 46.35 144.7 45.85 144.2 45.45 144.2 44.8 144.2 44.1 144.7 43.7 145.2 43.2 146 43.2 146.75 43.2 147.3 43.7 147.8 44.1 147.8 44.8 147.8 45.45 147.3 45.85 146.8 46.35 146 46.35M 138.95 39.25Q 137.7 39.25 136.85 40.1 136.05 40.9 136.05 42.05 136.05 43.15 136.85 43.9 137.65 44.65 138.85 44.65 139.55 44.65 140.15 44.3 140.75 44 141 43.5 140.95 45.2 140.2 46.15 139.55 47.1 138.55 47.1 137.9 47.1 137.55 46.8 137.75 46.65 137.75 46.35 137.75 46.1 137.55 45.9 137.35 45.7 137.05 45.7 136.8 45.7 136.55 45.9 136.35 46.15 136.35 46.5 136.35 46.9 136.65 47.25 137.3 47.95 138.45 47.95 139.85 47.95 140.8 46.8 141.95 45.5 141.95 43 141.95 41 141 40.05 140.2 39.25 138.95 39.25M 138.95 40.1Q 139.8 40.1 140.35 40.6 140.9 41.15 140.9 41.95 140.9 42.7 140.35 43.25 139.75 43.8 138.85 43.8 138.05 43.8 137.5 43.3 137 42.8 137 42.05 137 41.2 137.55 40.65 138.1 40.1 138.95 40.1M 123.75 40.75L 125.2 40.4 125.2 45.45 123.55 45.45 123.55 46.25 127.7 46.25 127.7 45.45 126.1 45.45 126.1 39.35 125.7 39.35 123.5 39.95 123.75 40.75M 129.65 40.1Q 128.85 40.9 128.85 42.05 128.85 43.15 129.65 43.9 130.45 44.65 131.65 44.65 132.35 44.65 132.95 44.3 133.55 44 133.8 43.5 133.75 45.2 133 46.15 132.35 47.1 131.35 47.1 130.7 47.1 130.35 46.8 130.55 46.65 130.55 46.35 130.55 46.1 130.35 45.9 130.15 45.7 129.85 45.7 129.6 45.7 129.35 45.9 129.15 46.15 129.15 46.5 129.15 46.9 129.45 47.25 130.1 47.95 131.25 47.95 132.65 47.95 133.6 46.8 134.75 45.5 134.75 43 134.75 41 133.8 40.05 133 39.25 131.75 39.25 130.5 39.25 129.65 40.1M 129.8 42.05Q 129.8 41.2 130.35 40.65 130.9 40.1 131.75 40.1 132.6 40.1 133.15 40.6 133.7 41.15 133.7 41.95 133.7 42.7 133.15 43.25 132.55 43.8 131.65 43.8 130.85 43.8 130.3 43.3 129.8 42.8 129.8 42.05 Z"></path></g></defs><g transform="matrix( 1.3049468994140625, 0, 0, 1.3049468994140625, 237.05,178.05) "><g transform="matrix( 1, 0, 0, 1, 0,0) "><use xlink:href="#Symbol_2_copy_0_Layer0_0_FILL"></use></g><g transform="matrix( 1, 0, 0, 1, 0,0) "><use xlink:href="#Symbol_2_copy_0_Layer0_1_FILL"></use></g></g></svg>